<?xml version="1.0" encoding="UTF-8"?>
<!DOCTYPE svg PUBLIC "-//W3C//DTD SVG 1.1//EN" "http://www.w3.org/Graphics/SVG/1.1/DTD/svg11.dtd">
<svg xmlns="http://www.w3.org/2000/svg" style="background: transparent; background-color: transparent; color-scheme: light dark;" xmlns:xlink="http://www.w3.org/1999/xlink" version="1.1" width="1160px" height="520px" viewBox="-0.5 -0.5 1160 520"><defs/><g><g data-cell-id="WIyWlLk6GJQsqaUBKTNV-0"><g data-cell-id="WIyWlLk6GJQsqaUBKTNV-1"><g data-cell-id="8q4hATX4hLdLHS9k3LjB-0"><g/><g data-cell-id="8q4hATX4hLdLHS9k3LjB-1"><g><rect x="0" y="0" width="360" height="40" fill="#363636" style="fill: light-dark(rgb(54, 54, 54), rgb(191, 191, 191));" stroke="none" pointer-events="all"/></g></g><g data-cell-id="8q4hATX4hLdLHS9k3LjB-2"><g><rect x="10" y="0" width="340" height="40" fill="none" stroke="none" pointer-events="all"/></g><g><g fill="#FFFFFF" style="fill: light-dark(rgb(255, 255, 255), rgb(18, 18, 18));" font-family="&quot;Helvetica&quot;" font-weight="bold" font-size="18px"><text x="11.5" y="27.5">Solution</text></g></g></g></g><g data-cell-id="8q4hATX4hLdLHS9k3LjB-3"><g/><g data-cell-id="8q4hATX4hLdLHS9k3LjB-4"><g><rect x="0" y="40" width="360" height="40" fill="#bac8d3" style="fill: light-dark(rgb(186, 200, 211), rgb(57, 69, 78));" stroke="none" pointer-events="all"/></g></g><g data-cell-id="8q4hATX4hLdLHS9k3LjB-5"><g><rect x="50" y="40" width="300" height="40" fill="none" stroke="none" pointer-events="all"/></g><g><g fill="#000000" style="fill: light-dark(rgb(0, 0, 0), rgb(255, 255, 255));" font-family="&quot;Helvetica&quot;" font-size="18px"><text x="51.5" y="67.5">n_companies: int</text></g></g></g><g data-cell-id="8q4hATX4hLdLHS9k3LjB-9"><g><g><svg xmlns="http://www.w3.org/2000/svg" version="1.1" xmlns:xlink="http://www.w3.org/1999/xlink" width="20" height="20" x="9.5" y="49.5" viewBox="2.5019421577453613 2.500300645828247 95.03112030029297 95.0347671508789" style="font-family: initial;" xml:space="preserve" class=""><g><path fill-rule="evenodd" d="M48.83 3.38a1.24 1.24 0 0 1 2.373 0l4.498 15.083a38.466 38.466 0 0 0 25.871 25.872l15.083 4.498a1.24 1.24 0 0 1 0 2.372l-15.083 4.498a38.466 38.466 0 0 0-25.87 25.871l-4.499 15.083a1.24 1.24 0 0 1-2.372 0l-4.498-15.083a38.466 38.466 0 0 0-25.872-25.87L3.38 51.204a1.24 1.24 0 0 1 0-2.372l15.082-4.498a38.466 38.466 0 0 0 25.872-25.872L48.83 3.381z" clip-rule="evenodd" fill="#000000" opacity="1" data-original="#000000" class=""/></g></svg></g></g></g></g><g data-cell-id="8q4hATX4hLdLHS9k3LjB-6"><g/><g data-cell-id="8q4hATX4hLdLHS9k3LjB-7"><g><rect x="0" y="160" width="360" height="40" fill="#e8edf0" style="fill: light-dark(rgb(232, 237, 240), rgb(30, 35, 37));" stroke="none" pointer-events="all"/></g></g><g data-cell-id="8q4hATX4hLdLHS9k3LjB-8"><g><rect x="50" y="160" width="300" height="40" fill="none" stroke="none" pointer-events="all"/></g><g><g fill="#000000" style="fill: light-dark(rgb(0, 0, 0), rgb(255, 255, 255));" font-family="&quot;Helvetica&quot;" font-size="18px"><text x="51.5" y="187.5">move()</text></g></g></g><g data-cell-id="8q4hATX4hLdLHS9k3LjB-10"><g><g><svg xmlns="http://www.w3.org/2000/svg" version="1.1" xmlns:xlink="http://www.w3.org/1999/xlink" width="18.46" height="20.5" x="9.5" y="169" viewBox="8.107000350952148 -0.000009059906005859375 147.64649963378906 163.86131286621094" style="font-family: initial;" xml:space="preserve" class=""><g><path d="M34.857 3.613C20.084-4.861 8.107 2.081 8.107 19.106v125.637c0 17.042 11.977 23.975 26.75 15.509L144.67 97.275c14.778-8.477 14.778-22.211 0-30.686L34.857 3.613z" fill="#000000" opacity="1" data-original="#000000"/></g></svg></g></g></g></g><g data-cell-id="8q4hATX4hLdLHS9k3LjB-11"><g/><g data-cell-id="8q4hATX4hLdLHS9k3LjB-12"><g><rect x="0" y="80" width="360" height="40" fill="#bac8d3" style="fill: light-dark(rgb(186, 200, 211), rgb(57, 69, 78));" stroke="none" pointer-events="all"/></g></g><g data-cell-id="8q4hATX4hLdLHS9k3LjB-13"><g><rect x="50" y="80" width="300" height="40" fill="none" stroke="none" pointer-events="all"/></g><g><g fill="#000000" style="fill: light-dark(rgb(0, 0, 0), rgb(255, 255, 255));" font-family="&quot;Helvetica&quot;" font-size="18px"><text x="51.5" y="107.5">n_projects: int</text></g></g></g><g data-cell-id="8q4hATX4hLdLHS9k3LjB-14"><g><g><svg xmlns="http://www.w3.org/2000/svg" version="1.1" xmlns:xlink="http://www.w3.org/1999/xlink" width="20" height="20" x="9.5" y="89.5" viewBox="2.5019421577453613 2.500300645828247 95.03112030029297 95.0347671508789" style="font-family: initial;" xml:space="preserve" class=""><g><path fill-rule="evenodd" d="M48.83 3.38a1.24 1.24 0 0 1 2.373 0l4.498 15.083a38.466 38.466 0 0 0 25.871 25.872l15.083 4.498a1.24 1.24 0 0 1 0 2.372l-15.083 4.498a38.466 38.466 0 0 0-25.87 25.871l-4.499 15.083a1.24 1.24 0 0 1-2.372 0l-4.498-15.083a38.466 38.466 0 0 0-25.872-25.87L3.38 51.204a1.24 1.24 0 0 1 0-2.372l15.082-4.498a38.466 38.466 0 0 0 25.872-25.872L48.83 3.381z" clip-rule="evenodd" fill="#000000" opacity="1" data-original="#000000" class=""/></g></svg></g></g></g></g><g data-cell-id="8q4hATX4hLdLHS9k3LjB-15"><g/><g data-cell-id="8q4hATX4hLdLHS9k3LjB-16"><g><rect x="0" y="120" width="360" height="40" fill="#bac8d3" style="fill: light-dark(rgb(186, 200, 211), rgb(57, 69, 78));" stroke="none" pointer-events="all"/></g></g><g data-cell-id="8q4hATX4hLdLHS9k3LjB-17"><g><rect x="50" y="120" width="300" height="40" fill="none" stroke="none" pointer-events="all"/></g><g><g fill="#000000" style="fill: light-dark(rgb(0, 0, 0), rgb(255, 255, 255));" font-family="&quot;Helvetica&quot;" font-size="18px"><text x="51.5" y="147.5">x: np.ndarray</text></g></g></g><g data-cell-id="8q4hATX4hLdLHS9k3LjB-18"><g><g><svg xmlns="http://www.w3.org/2000/svg" version="1.1" xmlns:xlink="http://www.w3.org/1999/xlink" width="20" height="20" x="9.5" y="129.5" viewBox="2.5019421577453613 2.500300645828247 95.03112030029297 95.0347671508789" style="font-family: initial;" xml:space="preserve" class=""><g><path fill-rule="evenodd" d="M48.83 3.38a1.24 1.24 0 0 1 2.373 0l4.498 15.083a38.466 38.466 0 0 0 25.871 25.872l15.083 4.498a1.24 1.24 0 0 1 0 2.372l-15.083 4.498a38.466 38.466 0 0 0-25.87 25.871l-4.499 15.083a1.24 1.24 0 0 1-2.372 0l-4.498-15.083a38.466 38.466 0 0 0-25.872-25.87L3.38 51.204a1.24 1.24 0 0 1 0-2.372l15.082-4.498a38.466 38.466 0 0 0 25.872-25.872L48.83 3.381z" clip-rule="evenodd" fill="#000000" opacity="1" data-original="#000000" class=""/></g></svg></g></g></g></g><g data-cell-id="aFxvz5iuOVCrnhaGJDHQ-0"><g/><g data-cell-id="aFxvz5iuOVCrnhaGJDHQ-1"><g><rect x="0" y="200" width="360" height="40" fill="#e8edf0" style="fill: light-dark(rgb(232, 237, 240), rgb(30, 35, 37));" stroke="none" pointer-events="all"/></g></g><g data-cell-id="aFxvz5iuOVCrnhaGJDHQ-2"><g><rect x="50" y="200" width="300" height="40" fill="none" stroke="none" pointer-events="all"/></g><g><g fill="#000000" style="fill: light-dark(rgb(0, 0, 0), rgb(255, 255, 255));" font-family="&quot;Helvetica&quot;" font-size="18px"><text x="51.5" y="227.5">sparse(): np.ndarray</text></g></g></g><g data-cell-id="aFxvz5iuOVCrnhaGJDHQ-3"><g><g><svg xmlns="http://www.w3.org/2000/svg" version="1.1" xmlns:xlink="http://www.w3.org/1999/xlink" width="18.46" height="20.5" x="9.5" y="209" viewBox="8.107000350952148 -0.000009059906005859375 147.64649963378906 163.86131286621094" style="font-family: initial;" xml:space="preserve" class=""><g><path d="M34.857 3.613C20.084-4.861 8.107 2.081 8.107 19.106v125.637c0 17.042 11.977 23.975 26.75 15.509L144.67 97.275c14.778-8.477 14.778-22.211 0-30.686L34.857 3.613z" fill="#000000" opacity="1" data-original="#000000"/></g></svg></g></g></g></g><g data-cell-id="aFxvz5iuOVCrnhaGJDHQ-4"><g/><g data-cell-id="aFxvz5iuOVCrnhaGJDHQ-5"><g><rect x="400" y="0" width="360" height="40" fill="#363636" style="fill: light-dark(rgb(54, 54, 54), rgb(191, 191, 191));" stroke="none" pointer-events="all"/></g></g><g data-cell-id="aFxvz5iuOVCrnhaGJDHQ-6"><g><rect x="410" y="0" width="340" height="40" fill="none" stroke="none" pointer-events="all"/></g><g><g fill="#FFFFFF" style="fill: light-dark(rgb(255, 255, 255), rgb(18, 18, 18));" font-family="&quot;Helvetica&quot;" font-weight="bold" font-size="18px"><text x="411.5" y="27.5">ObjectiveFunction</text></g></g></g></g><g data-cell-id="aFxvz5iuOVCrnhaGJDHQ-7"><g/><g data-cell-id="aFxvz5iuOVCrnhaGJDHQ-8"><g><rect x="400" y="40" width="360" height="40" fill="#bac8d3" style="fill: light-dark(rgb(186, 200, 211), rgb(57, 69, 78));" stroke="none" pointer-events="all"/></g></g><g data-cell-id="aFxvz5iuOVCrnhaGJDHQ-9"><g><rect x="450" y="40" width="300" height="40" fill="none" stroke="none" pointer-events="all"/></g><g><g fill="#000000" style="fill: light-dark(rgb(0, 0, 0), rgb(255, 255, 255));" font-family="&quot;Helvetica&quot;" font-size="18px"><text x="451.5" y="67.5">cost_matrix: np.ndarray</text></g></g></g><g data-cell-id="aFxvz5iuOVCrnhaGJDHQ-10"><g><g><svg xmlns="http://www.w3.org/2000/svg" version="1.1" xmlns:xlink="http://www.w3.org/1999/xlink" width="20" height="20" x="409.5" y="49.5" viewBox="2.5019421577453613 2.500300645828247 95.03112030029297 95.0347671508789" style="font-family: initial;" xml:space="preserve" class=""><g><path fill-rule="evenodd" d="M48.83 3.38a1.24 1.24 0 0 1 2.373 0l4.498 15.083a38.466 38.466 0 0 0 25.871 25.872l15.083 4.498a1.24 1.24 0 0 1 0 2.372l-15.083 4.498a38.466 38.466 0 0 0-25.87 25.871l-4.499 15.083a1.24 1.24 0 0 1-2.372 0l-4.498-15.083a38.466 38.466 0 0 0-25.872-25.87L3.38 51.204a1.24 1.24 0 0 1 0-2.372l15.082-4.498a38.466 38.466 0 0 0 25.872-25.872L48.83 3.381z" clip-rule="evenodd" fill="#000000" opacity="1" data-original="#000000" class=""/></g></svg></g></g></g></g><g data-cell-id="aFxvz5iuOVCrnhaGJDHQ-11"><g/><g data-cell-id="aFxvz5iuOVCrnhaGJDHQ-12"><g><rect x="400" y="80" width="360" height="40" fill="#e8edf0" style="fill: light-dark(rgb(232, 237, 240), rgb(30, 35, 37));" stroke="none" pointer-events="all"/></g></g><g data-cell-id="aFxvz5iuOVCrnhaGJDHQ-13"><g><rect x="450" y="80" width="300" height="40" fill="none" stroke="none" pointer-events="all"/></g><g><g fill="#000000" style="fill: light-dark(rgb(0, 0, 0), rgb(255, 255, 255));" font-family="&quot;Helvetica&quot;" font-size="18px"><text x="451.5" y="107.5">__call__(Solution): int</text></g></g></g><g data-cell-id="aFxvz5iuOVCrnhaGJDHQ-14"><g><g><svg xmlns="http://www.w3.org/2000/svg" version="1.1" xmlns:xlink="http://www.w3.org/1999/xlink" width="18.46" height="20.5" x="409.5" y="89" viewBox="8.107000350952148 -0.000009059906005859375 147.64649963378906 163.86131286621094" style="font-family: initial;" xml:space="preserve" class=""><g><path d="M34.857 3.613C20.084-4.861 8.107 2.081 8.107 19.106v125.637c0 17.042 11.977 23.975 26.75 15.509L144.67 97.275c14.778-8.477 14.778-22.211 0-30.686L34.857 3.613z" fill="#000000" opacity="1" data-original="#000000"/></g></svg></g></g></g></g><g data-cell-id="aFxvz5iuOVCrnhaGJDHQ-34"><g/><g data-cell-id="aFxvz5iuOVCrnhaGJDHQ-35"><g><rect x="0" y="440" width="360" height="40" fill="#363636" style="fill: light-dark(rgb(54, 54, 54), rgb(191, 191, 191));" stroke="none" pointer-events="all"/></g></g><g data-cell-id="aFxvz5iuOVCrnhaGJDHQ-36"><g><rect x="10" y="440" width="340" height="40" fill="none" stroke="none" pointer-events="all"/></g><g><g fill="#FFFFFF" style="fill: light-dark(rgb(255, 255, 255), rgb(18, 18, 18));" font-family="&quot;Helvetica&quot;" font-weight="bold" font-size="18px"><text x="11.5" y="467.5">Minimize</text></g></g></g></g><g data-cell-id="aFxvz5iuOVCrnhaGJDHQ-37"><g/><g data-cell-id="aFxvz5iuOVCrnhaGJDHQ-38"><g><rect x="0" y="480" width="360" height="40" fill="#e8edf0" style="fill: light-dark(rgb(232, 237, 240), rgb(30, 35, 37));" stroke="none" pointer-events="all"/></g></g><g data-cell-id="aFxvz5iuOVCrnhaGJDHQ-39"><g><rect x="50" y="480" width="300" height="40" fill="none" stroke="none" pointer-events="all"/></g><g><g fill="#000000" style="fill: light-dark(rgb(0, 0, 0), rgb(255, 255, 255));" font-family="&quot;Helvetica&quot;" font-size="18px"><text x="51.5" y="507.5">__call__(float, float): bool</text></g></g></g><g data-cell-id="aFxvz5iuOVCrnhaGJDHQ-40"><g><g><svg xmlns="http://www.w3.org/2000/svg" version="1.1" xmlns:xlink="http://www.w3.org/1999/xlink" width="18.46" height="20.5" x="9.5" y="489" viewBox="8.107000350952148 -0.000009059906005859375 147.64649963378906 163.86131286621094" style="font-family: initial;" xml:space="preserve" class=""><g><path d="M34.857 3.613C20.084-4.861 8.107 2.081 8.107 19.106v125.637c0 17.042 11.977 23.975 26.75 15.509L144.67 97.275c14.778-8.477 14.778-22.211 0-30.686L34.857 3.613z" fill="#000000" opacity="1" data-original="#000000"/></g></svg></g></g></g></g><g data-cell-id="aFxvz5iuOVCrnhaGJDHQ-41"><g/><g data-cell-id="aFxvz5iuOVCrnhaGJDHQ-42"><g><rect x="400" y="440" width="360" height="40" fill="#363636" style="fill: light-dark(rgb(54, 54, 54), rgb(191, 191, 191));" stroke="none" pointer-events="all"/></g></g><g data-cell-id="aFxvz5iuOVCrnhaGJDHQ-43"><g><rect x="410" y="440" width="340" height="40" fill="none" stroke="none" pointer-events="all"/></g><g><g fill="#FFFFFF" style="fill: light-dark(rgb(255, 255, 255), rgb(18, 18, 18));" font-family="&quot;Helvetica&quot;" font-weight="bold" font-size="18px"><text x="411.5" y="467.5">Maximize</text></g></g></g></g><g data-cell-id="aFxvz5iuOVCrnhaGJDHQ-44"><g/><g data-cell-id="aFxvz5iuOVCrnhaGJDHQ-45"><g><rect x="400" y="480" width="360" height="40" fill="#e8edf0" style="fill: light-dark(rgb(232, 237, 240), rgb(30, 35, 37));" stroke="none" pointer-events="all"/></g></g><g data-cell-id="aFxvz5iuOVCrnhaGJDHQ-46"><g><rect x="450" y="480" width="300" height="40" fill="none" stroke="none" pointer-events="all"/></g><g><g fill="#000000" style="fill: light-dark(rgb(0, 0, 0), rgb(255, 255, 255));" font-family="&quot;Helvetica&quot;" font-size="18px"><text x="451.5" y="507.5">__call__(float, float): bool</text></g></g></g><g data-cell-id="aFxvz5iuOVCrnhaGJDHQ-47"><g><g><svg xmlns="http://www.w3.org/2000/svg" version="1.1" xmlns:xlink="http://www.w3.org/1999/xlink" width="18.46" height="20.5" x="409.5" y="489" viewBox="8.107000350952148 -0.000009059906005859375 147.64649963378906 163.86131286621094" style="font-family: initial;" xml:space="preserve" class=""><g><path d="M34.857 3.613C20.084-4.861 8.107 2.081 8.107 19.106v125.637c0 17.042 11.977 23.975 26.75 15.509L144.67 97.275c14.778-8.477 14.778-22.211 0-30.686L34.857 3.613z" fill="#000000" opacity="1" data-original="#000000"/></g></svg></g></g></g></g><g data-cell-id="aFxvz5iuOVCrnhaGJDHQ-49"><g/><g data-cell-id="aFxvz5iuOVCrnhaGJDHQ-27"><g/><g data-cell-id="aFxvz5iuOVCrnhaGJDHQ-28"><g><rect x="200" y="280" width="360" height="40" fill="#363636" style="fill: light-dark(rgb(54, 54, 54), rgb(191, 191, 191));" stroke="none" pointer-events="all"/></g></g><g data-cell-id="aFxvz5iuOVCrnhaGJDHQ-29"><g><rect x="210" y="280" width="340" height="40" fill="none" stroke="none" pointer-events="all"/></g><g><g fill="#FFFFFF" style="fill: light-dark(rgb(255, 255, 255), rgb(18, 18, 18));" font-family="&quot;Helvetica&quot;" font-weight="bold" font-size="18px"><text x="211.5" y="307.5">Problem</text></g></g></g></g><g data-cell-id="aFxvz5iuOVCrnhaGJDHQ-30"><g/><g data-cell-id="aFxvz5iuOVCrnhaGJDHQ-31"><g><rect x="200" y="320" width="360" height="40" fill="#e8edf0" style="fill: light-dark(rgb(232, 237, 240), rgb(30, 35, 37));" stroke="none" pointer-events="all"/></g></g><g data-cell-id="aFxvz5iuOVCrnhaGJDHQ-32"><g><rect x="250" y="330" width="300" height="20" fill="none" stroke="none" pointer-events="all"/></g><g><g fill="#000000" style="fill: light-dark(rgb(0, 0, 0), rgb(255, 255, 255));" font-family="&quot;Helvetica&quot;" font-size="18px"><text x="251.5" y="347.5">__call__(float, float): bool</text></g></g></g><g data-cell-id="aFxvz5iuOVCrnhaGJDHQ-33"><g><g><svg xmlns="http://www.w3.org/2000/svg" version="1.1" xmlns:xlink="http://www.w3.org/1999/xlink" width="18.46" height="20.5" x="209.5" y="329" viewBox="8.107000350952148 -0.000009059906005859375 147.64649963378906 163.86131286621094" style="font-family: initial;" xml:space="preserve" class=""><g><path d="M34.857 3.613C20.084-4.861 8.107 2.081 8.107 19.106v125.637c0 17.042 11.977 23.975 26.75 15.509L144.67 97.275c14.778-8.477 14.778-22.211 0-30.686L34.857 3.613z" fill="#000000" opacity="1" data-original="#000000"/></g></svg></g></g></g></g></g><g data-cell-id="aFxvz5iuOVCrnhaGJDHQ-48"><g><path d="M 180 440 L 180 400 L 380 400 L 380 370.24" fill="none" stroke="#000000" style="stroke: light-dark(rgb(0, 0, 0), rgb(255, 255, 255));" stroke-width="2" stroke-miterlimit="10" pointer-events="stroke"/><path d="M 380 362.24 L 384 370.24 L 376 370.24 Z" fill="#000000" style="fill: light-dark(rgb(0, 0, 0), rgb(255, 255, 255)); stroke: light-dark(rgb(0, 0, 0), rgb(255, 255, 255));" stroke="#000000" stroke-width="2" stroke-miterlimit="10" pointer-events="all"/></g></g><g data-cell-id="aFxvz5iuOVCrnhaGJDHQ-50"><g><path d="M 580 440 L 580 400 L 380 400 L 380 370.24" fill="none" stroke="#000000" style="stroke: light-dark(rgb(0, 0, 0), rgb(255, 255, 255));" stroke-width="2" stroke-miterlimit="10" pointer-events="stroke"/><path d="M 380 362.24 L 384 370.24 L 376 370.24 Z" fill="#000000" style="fill: light-dark(rgb(0, 0, 0), rgb(255, 255, 255)); stroke: light-dark(rgb(0, 0, 0), rgb(255, 255, 255));" stroke="#000000" stroke-width="2" stroke-miterlimit="10" pointer-events="all"/></g></g><g data-cell-id="aFxvz5iuOVCrnhaGJDHQ-51"><g/><g data-cell-id="aFxvz5iuOVCrnhaGJDHQ-52"><g><rect x="800" y="0" width="360" height="40" fill="#363636" style="fill: light-dark(rgb(54, 54, 54), rgb(191, 191, 191));" stroke="none" pointer-events="all"/></g></g><g data-cell-id="aFxvz5iuOVCrnhaGJDHQ-53"><g><rect x="810" y="0" width="340" height="40" fill="none" stroke="none" pointer-events="all"/></g><g><g fill="#FFFFFF" style="fill: light-dark(rgb(255, 255, 255), rgb(18, 18, 18));" font-family="&quot;Helvetica&quot;" font-weight="bold" font-size="18px"><text x="811.5" y="27.5">HillClimbing</text></g></g></g></g><g data-cell-id="aFxvz5iuOVCrnhaGJDHQ-54"><g/><g data-cell-id="aFxvz5iuOVCrnhaGJDHQ-55"><g><rect x="800" y="40" width="360" height="40" fill="#bac8d3" style="fill: light-dark(rgb(186, 200, 211), rgb(57, 69, 78));" stroke="none" pointer-events="all"/></g></g><g data-cell-id="aFxvz5iuOVCrnhaGJDHQ-56"><g><rect x="850" y="40" width="300" height="40" fill="none" stroke="none" pointer-events="all"/></g><g><g fill="#000000" style="fill: light-dark(rgb(0, 0, 0), rgb(255, 255, 255));" font-family="&quot;Helvetica&quot;" font-size="18px"><text x="851.5" y="67.5">problem: Problem</text></g></g></g><g data-cell-id="aFxvz5iuOVCrnhaGJDHQ-57"><g><g><svg xmlns="http://www.w3.org/2000/svg" version="1.1" xmlns:xlink="http://www.w3.org/1999/xlink" width="20" height="20" x="809.5" y="49.5" viewBox="2.5019421577453613 2.500300645828247 95.03112030029297 95.0347671508789" style="font-family: initial;" xml:space="preserve" class=""><g><path fill-rule="evenodd" d="M48.83 3.38a1.24 1.24 0 0 1 2.373 0l4.498 15.083a38.466 38.466 0 0 0 25.871 25.872l15.083 4.498a1.24 1.24 0 0 1 0 2.372l-15.083 4.498a38.466 38.466 0 0 0-25.87 25.871l-4.499 15.083a1.24 1.24 0 0 1-2.372 0l-4.498-15.083a38.466 38.466 0 0 0-25.872-25.87L3.38 51.204a1.24 1.24 0 0 1 0-2.372l15.082-4.498a38.466 38.466 0 0 0 25.872-25.872L48.83 3.381z" clip-rule="evenodd" fill="#000000" opacity="1" data-original="#000000" class=""/></g></svg></g></g></g></g><g data-cell-id="aFxvz5iuOVCrnhaGJDHQ-58"><g/><g data-cell-id="aFxvz5iuOVCrnhaGJDHQ-59"><g><rect x="800" y="480" width="360" height="40" fill="#e8edf0" style="fill: light-dark(rgb(232, 237, 240), rgb(30, 35, 37));" stroke="none" pointer-events="all"/></g></g><g data-cell-id="aFxvz5iuOVCrnhaGJDHQ-60"><g><rect x="850" y="480" width="300" height="40" fill="none" stroke="none" pointer-events="all"/></g><g><g fill="#000000" style="fill: light-dark(rgb(0, 0, 0), rgb(255, 255, 255));" font-family="&quot;Helvetica&quot;" font-size="18px"><text x="851.5" y="507.5">run()</text></g></g></g><g data-cell-id="aFxvz5iuOVCrnhaGJDHQ-61"><g><g><svg xmlns="http://www.w3.org/2000/svg" version="1.1" xmlns:xlink="http://www.w3.org/1999/xlink" width="18.46" height="20.5" x="809.5" y="489" viewBox="8.107000350952148 -0.000009059906005859375 147.64649963378906 163.86131286621094" style="font-family: initial;" xml:space="preserve" class=""><g><path d="M34.857 3.613C20.084-4.861 8.107 2.081 8.107 19.106v125.637c0 17.042 11.977 23.975 26.75 15.509L144.67 97.275c14.778-8.477 14.778-22.211 0-30.686L34.857 3.613z" fill="#000000" opacity="1" data-original="#000000"/></g></svg></g></g></g></g><g data-cell-id="aFxvz5iuOVCrnhaGJDHQ-62"><g/><g data-cell-id="aFxvz5iuOVCrnhaGJDHQ-63"><g><rect x="800" y="80" width="360" height="40" fill="#bac8d3" style="fill: light-dark(rgb(186, 200, 211), rgb(57, 69, 78));" stroke="none" pointer-events="all"/></g></g><g data-cell-id="aFxvz5iuOVCrnhaGJDHQ-64"><g><rect x="850" y="80" width="300" height="40" fill="none" stroke="none" pointer-events="all"/></g><g><g fill="#000000" style="fill: light-dark(rgb(0, 0, 0), rgb(255, 255, 255));" font-family="&quot;Helvetica&quot;" font-size="18px"><text x="851.5" y="107.5">objective_function: ObjectiveFunction</text></g></g></g><g data-cell-id="aFxvz5iuOVCrnhaGJDHQ-65"><g><g><svg xmlns="http://www.w3.org/2000/svg" version="1.1" xmlns:xlink="http://www.w3.org/1999/xlink" width="20" height="20" x="809.5" y="89.5" viewBox="2.5019421577453613 2.500300645828247 95.03112030029297 95.0347671508789" style="font-family: initial;" xml:space="preserve" class=""><g><path fill-rule="evenodd" d="M48.83 3.38a1.24 1.24 0 0 1 2.373 0l4.498 15.083a38.466 38.466 0 0 0 25.871 25.872l15.083 4.498a1.24 1.24 0 0 1 0 2.372l-15.083 4.498a38.466 38.466 0 0 0-25.87 25.871l-4.499 15.083a1.24 1.24 0 0 1-2.372 0l-4.498-15.083a38.466 38.466 0 0 0-25.872-25.87L3.38 51.204a1.24 1.24 0 0 1 0-2.372l15.082-4.498a38.466 38.466 0 0 0 25.872-25.872L48.83 3.381z" clip-rule="evenodd" fill="#000000" opacity="1" data-original="#000000" class=""/></g></svg></g></g></g></g><g data-cell-id="aFxvz5iuOVCrnhaGJDHQ-66"><g/><g data-cell-id="aFxvz5iuOVCrnhaGJDHQ-67"><g><rect x="800" y="120" width="360" height="40" fill="#bac8d3" style="fill: light-dark(rgb(186, 200, 211), rgb(57, 69, 78));" stroke="none" pointer-events="all"/></g></g><g data-cell-id="aFxvz5iuOVCrnhaGJDHQ-68"><g><rect x="850" y="120" width="300" height="40" fill="none" stroke="none" pointer-events="all"/></g><g><g fill="#000000" style="fill: light-dark(rgb(0, 0, 0), rgb(255, 255, 255));" font-family="&quot;Helvetica&quot;" font-size="18px"><text x="851.5" y="147.5">cost_matrix: np.ndarray</text></g></g></g><g data-cell-id="aFxvz5iuOVCrnhaGJDHQ-69"><g><g><svg xmlns="http://www.w3.org/2000/svg" version="1.1" xmlns:xlink="http://www.w3.org/1999/xlink" width="20" height="20" x="809.5" y="129.5" viewBox="2.5019421577453613 2.500300645828247 95.03112030029297 95.0347671508789" style="font-family: initial;" xml:space="preserve" class=""><g><path fill-rule="evenodd" d="M48.83 3.38a1.24 1.24 0 0 1 2.373 0l4.498 15.083a38.466 38.466 0 0 0 25.871 25.872l15.083 4.498a1.24 1.24 0 0 1 0 2.372l-15.083 4.498a38.466 38.466 0 0 0-25.87 25.871l-4.499 15.083a1.24 1.24 0 0 1-2.372 0l-4.498-15.083a38.466 38.466 0 0 0-25.872-25.87L3.38 51.204a1.24 1.24 0 0 1 0-2.372l15.082-4.498a38.466 38.466 0 0 0 25.872-25.872L48.83 3.381z" clip-rule="evenodd" fill="#000000" opacity="1" data-original="#000000" class=""/></g></svg></g></g></g></g><g data-cell-id="aFxvz5iuOVCrnhaGJDHQ-74"><g/><g data-cell-id="aFxvz5iuOVCrnhaGJDHQ-75"><g><rect x="800" y="160" width="360" height="40" fill="#bac8d3" style="fill: light-dark(rgb(186, 200, 211), rgb(57, 69, 78));" stroke="none" pointer-events="all"/></g></g><g data-cell-id="aFxvz5iuOVCrnhaGJDHQ-76"><g><rect x="850" y="160" width="300" height="40" fill="none" stroke="none" pointer-events="all"/></g><g><g fill="#000000" style="fill: light-dark(rgb(0, 0, 0), rgb(255, 255, 255));" font-family="&quot;Helvetica&quot;" font-size="18px"><text x="851.5" y="187.5">max_iterations: int</text></g></g></g><g data-cell-id="aFxvz5iuOVCrnhaGJDHQ-77"><g><g><svg xmlns="http://www.w3.org/2000/svg" version="1.1" xmlns:xlink="http://www.w3.org/1999/xlink" width="20" height="20" x="809.5" y="169.5" viewBox="2.5019421577453613 2.500300645828247 95.03112030029297 95.0347671508789" style="font-family: initial;" xml:space="preserve" class=""><g><path fill-rule="evenodd" d="M48.83 3.38a1.24 1.24 0 0 1 2.373 0l4.498 15.083a38.466 38.466 0 0 0 25.871 25.872l15.083 4.498a1.24 1.24 0 0 1 0 2.372l-15.083 4.498a38.466 38.466 0 0 0-25.87 25.871l-4.499 15.083a1.24 1.24 0 0 1-2.372 0l-4.498-15.083a38.466 38.466 0 0 0-25.872-25.87L3.38 51.204a1.24 1.24 0 0 1 0-2.372l15.082-4.498a38.466 38.466 0 0 0 25.872-25.872L48.83 3.381z" clip-rule="evenodd" fill="#000000" opacity="1" data-original="#000000" class=""/></g></svg></g></g></g></g><g data-cell-id="aFxvz5iuOVCrnhaGJDHQ-78"><g/><g data-cell-id="aFxvz5iuOVCrnhaGJDHQ-79"><g><rect x="800" y="200" width="360" height="40" fill="#bac8d3" style="fill: light-dark(rgb(186, 200, 211), rgb(57, 69, 78));" stroke="none" pointer-events="all"/></g></g><g data-cell-id="aFxvz5iuOVCrnhaGJDHQ-80"><g><rect x="850" y="200" width="300" height="40" fill="none" stroke="none" pointer-events="all"/></g><g><g fill="#000000" style="fill: light-dark(rgb(0, 0, 0), rgb(255, 255, 255));" font-family="&quot;Helvetica&quot;" font-size="18px"><text x="851.5" y="227.5">patience: int</text></g></g></g><g data-cell-id="aFxvz5iuOVCrnhaGJDHQ-81"><g><g><svg xmlns="http://www.w3.org/2000/svg" version="1.1" xmlns:xlink="http://www.w3.org/1999/xlink" width="20" height="20" x="809.5" y="209.5" viewBox="2.5019421577453613 2.500300645828247 95.03112030029297 95.0347671508789" style="font-family: initial;" xml:space="preserve" class=""><g><path fill-rule="evenodd" d="M48.83 3.38a1.24 1.24 0 0 1 2.373 0l4.498 15.083a38.466 38.466 0 0 0 25.871 25.872l15.083 4.498a1.24 1.24 0 0 1 0 2.372l-15.083 4.498a38.466 38.466 0 0 0-25.87 25.871l-4.499 15.083a1.24 1.24 0 0 1-2.372 0l-4.498-15.083a38.466 38.466 0 0 0-25.872-25.87L3.38 51.204a1.24 1.24 0 0 1 0-2.372l15.082-4.498a38.466 38.466 0 0 0 25.872-25.872L48.83 3.381z" clip-rule="evenodd" fill="#000000" opacity="1" data-original="#000000" class=""/></g></svg></g></g></g></g><g data-cell-id="aFxvz5iuOVCrnhaGJDHQ-82"><g/><g data-cell-id="aFxvz5iuOVCrnhaGJDHQ-83"><g><rect x="800" y="240" width="360" height="40" fill="#bac8d3" style="fill: light-dark(rgb(186, 200, 211), rgb(57, 69, 78));" stroke="none" pointer-events="all"/></g></g><g data-cell-id="aFxvz5iuOVCrnhaGJDHQ-84"><g><rect x="850" y="240" width="300" height="40" fill="none" stroke="none" pointer-events="all"/></g><g><g fill="#000000" style="fill: light-dark(rgb(0, 0, 0), rgb(255, 255, 255));" font-family="&quot;Helvetica&quot;" font-size="18px"><text x="851.5" y="267.5">n_iterations: int</text></g></g></g><g data-cell-id="aFxvz5iuOVCrnhaGJDHQ-85"><g><g><svg xmlns="http://www.w3.org/2000/svg" version="1.1" xmlns:xlink="http://www.w3.org/1999/xlink" width="20" height="20" x="809.5" y="249.5" viewBox="2.5019421577453613 2.500300645828247 95.03112030029297 95.0347671508789" style="font-family: initial;" xml:space="preserve" class=""><g><path fill-rule="evenodd" d="M48.83 3.38a1.24 1.24 0 0 1 2.373 0l4.498 15.083a38.466 38.466 0 0 0 25.871 25.872l15.083 4.498a1.24 1.24 0 0 1 0 2.372l-15.083 4.498a38.466 38.466 0 0 0-25.87 25.871l-4.499 15.083a1.24 1.24 0 0 1-2.372 0l-4.498-15.083a38.466 38.466 0 0 0-25.872-25.87L3.38 51.204a1.24 1.24 0 0 1 0-2.372l15.082-4.498a38.466 38.466 0 0 0 25.872-25.872L48.83 3.381z" clip-rule="evenodd" fill="#000000" opacity="1" data-original="#000000" class=""/></g></svg></g></g></g></g><g data-cell-id="aFxvz5iuOVCrnhaGJDHQ-86"><g/><g data-cell-id="aFxvz5iuOVCrnhaGJDHQ-87"><g><rect x="800" y="280" width="360" height="40" fill="#bac8d3" style="fill: light-dark(rgb(186, 200, 211), rgb(57, 69, 78));" stroke="none" pointer-events="all"/></g></g><g data-cell-id="aFxvz5iuOVCrnhaGJDHQ-88"><g><rect x="850" y="280" width="300" height="40" fill="none" stroke="none" pointer-events="all"/></g><g><g fill="#000000" style="fill: light-dark(rgb(0, 0, 0), rgb(255, 255, 255));" font-family="&quot;Helvetica&quot;" font-size="18px"><text x="851.5" y="307.5">_called: bool</text></g></g></g><g data-cell-id="aFxvz5iuOVCrnhaGJDHQ-89"><g><g><svg xmlns="http://www.w3.org/2000/svg" version="1.1" xmlns:xlink="http://www.w3.org/1999/xlink" width="20" height="20" x="809.5" y="289.5" viewBox="2.5019421577453613 2.500300645828247 95.03112030029297 95.0347671508789" style="font-family: initial;" xml:space="preserve" class=""><g><path fill-rule="evenodd" d="M48.83 3.38a1.24 1.24 0 0 1 2.373 0l4.498 15.083a38.466 38.466 0 0 0 25.871 25.872l15.083 4.498a1.24 1.24 0 0 1 0 2.372l-15.083 4.498a38.466 38.466 0 0 0-25.87 25.871l-4.499 15.083a1.24 1.24 0 0 1-2.372 0l-4.498-15.083a38.466 38.466 0 0 0-25.872-25.87L3.38 51.204a1.24 1.24 0 0 1 0-2.372l15.082-4.498a38.466 38.466 0 0 0 25.872-25.872L48.83 3.381z" clip-rule="evenodd" fill="#000000" opacity="1" data-original="#000000" class=""/></g></svg></g></g></g></g><g data-cell-id="aFxvz5iuOVCrnhaGJDHQ-90"><g/><g data-cell-id="aFxvz5iuOVCrnhaGJDHQ-91"><g><rect x="800" y="320" width="360" height="40" fill="#bac8d3" style="fill: light-dark(rgb(186, 200, 211), rgb(57, 69, 78));" stroke="none" pointer-events="all"/></g></g><g data-cell-id="aFxvz5iuOVCrnhaGJDHQ-92"><g><rect x="850" y="320" width="300" height="40" fill="none" stroke="none" pointer-events="all"/></g><g><g fill="#000000" style="fill: light-dark(rgb(0, 0, 0), rgb(255, 255, 255));" font-family="&quot;Helvetica&quot;" font-size="18px"><text x="851.5" y="347.5">initial_solution: Solution</text></g></g></g><g data-cell-id="aFxvz5iuOVCrnhaGJDHQ-93"><g><g><svg xmlns="http://www.w3.org/2000/svg" version="1.1" xmlns:xlink="http://www.w3.org/1999/xlink" width="20" height="20" x="809.5" y="329.5" viewBox="2.5019421577453613 2.500300645828247 95.03112030029297 95.0347671508789" style="font-family: initial;" xml:space="preserve" class=""><g><path fill-rule="evenodd" d="M48.83 3.38a1.24 1.24 0 0 1 2.373 0l4.498 15.083a38.466 38.466 0 0 0 25.871 25.872l15.083 4.498a1.24 1.24 0 0 1 0 2.372l-15.083 4.498a38.466 38.466 0 0 0-25.87 25.871l-4.499 15.083a1.24 1.24 0 0 1-2.372 0l-4.498-15.083a38.466 38.466 0 0 0-25.872-25.87L3.38 51.204a1.24 1.24 0 0 1 0-2.372l15.082-4.498a38.466 38.466 0 0 0 25.872-25.872L48.83 3.381z" clip-rule="evenodd" fill="#000000" opacity="1" data-original="#000000" class=""/></g></svg></g></g></g></g><g data-cell-id="aFxvz5iuOVCrnhaGJDHQ-94"><g/><g data-cell-id="aFxvz5iuOVCrnhaGJDHQ-95"><g><rect x="800" y="360" width="360" height="40" fill="#bac8d3" style="fill: light-dark(rgb(186, 200, 211), rgb(57, 69, 78));" stroke="none" pointer-events="all"/></g></g><g data-cell-id="aFxvz5iuOVCrnhaGJDHQ-96"><g><rect x="850" y="360" width="300" height="40" fill="none" stroke="none" pointer-events="all"/></g><g><g fill="#000000" style="fill: light-dark(rgb(0, 0, 0), rgb(255, 255, 255));" font-family="&quot;Helvetica&quot;" font-size="18px"><text x="851.5" y="387.5">best_solution: Solution</text></g></g></g><g data-cell-id="aFxvz5iuOVCrnhaGJDHQ-97"><g><g><svg xmlns="http://www.w3.org/2000/svg" version="1.1" xmlns:xlink="http://www.w3.org/1999/xlink" width="20" height="20" x="809.5" y="369.5" viewBox="2.5019421577453613 2.500300645828247 95.03112030029297 95.0347671508789" style="font-family: initial;" xml:space="preserve" class=""><g><path fill-rule="evenodd" d="M48.83 3.38a1.24 1.24 0 0 1 2.373 0l4.498 15.083a38.466 38.466 0 0 0 25.871 25.872l15.083 4.498a1.24 1.24 0 0 1 0 2.372l-15.083 4.498a38.466 38.466 0 0 0-25.87 25.871l-4.499 15.083a1.24 1.24 0 0 1-2.372 0l-4.498-15.083a38.466 38.466 0 0 0-25.872-25.87L3.38 51.204a1.24 1.24 0 0 1 0-2.372l15.082-4.498a38.466 38.466 0 0 0 25.872-25.872L48.83 3.381z" clip-rule="evenodd" fill="#000000" opacity="1" data-original="#000000" class=""/></g></svg></g></g></g></g><g data-cell-id="aFxvz5iuOVCrnhaGJDHQ-98"><g/><g data-cell-id="aFxvz5iuOVCrnhaGJDHQ-99"><g><rect x="800" y="400" width="360" height="40" fill="#bac8d3" style="fill: light-dark(rgb(186, 200, 211), rgb(57, 69, 78));" stroke="none" pointer-events="all"/></g></g><g data-cell-id="aFxvz5iuOVCrnhaGJDHQ-100"><g><rect x="850" y="400" width="300" height="40" fill="none" stroke="none" pointer-events="all"/></g><g><g fill="#000000" style="fill: light-dark(rgb(0, 0, 0), rgb(255, 255, 255));" font-family="&quot;Helvetica&quot;" font-size="18px"><text x="851.5" y="427.5">best_cost: int</text></g></g></g><g data-cell-id="aFxvz5iuOVCrnhaGJDHQ-101"><g><g><svg xmlns="http://www.w3.org/2000/svg" version="1.1" xmlns:xlink="http://www.w3.org/1999/xlink" width="20" height="20" x="809.5" y="409.5" viewBox="2.5019421577453613 2.500300645828247 95.03112030029297 95.0347671508789" style="font-family: initial;" xml:space="preserve" class=""><g><path fill-rule="evenodd" d="M48.83 3.38a1.24 1.24 0 0 1 2.373 0l4.498 15.083a38.466 38.466 0 0 0 25.871 25.872l15.083 4.498a1.24 1.24 0 0 1 0 2.372l-15.083 4.498a38.466 38.466 0 0 0-25.87 25.871l-4.499 15.083a1.24 1.24 0 0 1-2.372 0l-4.498-15.083a38.466 38.466 0 0 0-25.872-25.87L3.38 51.204a1.24 1.24 0 0 1 0-2.372l15.082-4.498a38.466 38.466 0 0 0 25.872-25.872L48.83 3.381z" clip-rule="evenodd" fill="#000000" opacity="1" data-original="#000000" class=""/></g></svg></g></g></g></g><g data-cell-id="aFxvz5iuOVCrnhaGJDHQ-102"><g/><g data-cell-id="aFxvz5iuOVCrnhaGJDHQ-103"><g><rect x="800" y="440" width="360" height="40" fill="#bac8d3" style="fill: light-dark(rgb(186, 200, 211), rgb(57, 69, 78));" stroke="none" pointer-events="all"/></g></g><g data-cell-id="aFxvz5iuOVCrnhaGJDHQ-104"><g><rect x="850" y="440" width="300" height="40" fill="none" stroke="none" pointer-events="all"/></g><g><g fill="#000000" style="fill: light-dark(rgb(0, 0, 0), rgb(255, 255, 255));" font-family="&quot;Helvetica&quot;" font-size="18px"><text x="851.5" y="467.5">history: Dict</text></g></g></g><g data-cell-id="aFxvz5iuOVCrnhaGJDHQ-105"><g><g><svg xmlns="http://www.w3.org/2000/svg" version="1.1" xmlns:xlink="http://www.w3.org/1999/xlink" width="20" height="20" x="809.5" y="449.5" viewBox="2.5019421577453613 2.500300645828247 95.03112030029297 95.0347671508789" style="font-family: initial;" xml:space="preserve" class=""><g><path fill-rule="evenodd" d="M48.83 3.38a1.24 1.24 0 0 1 2.373 0l4.498 15.083a38.466 38.466 0 0 0 25.871 25.872l15.083 4.498a1.24 1.24 0 0 1 0 2.372l-15.083 4.498a38.466 38.466 0 0 0-25.87 25.871l-4.499 15.083a1.24 1.24 0 0 1-2.372 0l-4.498-15.083a38.466 38.466 0 0 0-25.872-25.87L3.38 51.204a1.24 1.24 0 0 1 0-2.372l15.082-4.498a38.466 38.466 0 0 0 25.872-25.872L48.83 3.381z" clip-rule="evenodd" fill="#000000" opacity="1" data-original="#000000" class=""/></g></svg></g></g></g></g></g></g></g></svg>